<svg width="40" height="39" viewBox="0 0 40 39" fill="none" xmlns="http://www.w3.org/2000/svg">
<path d="M35.7794 24.0357L36.1558 20.3424C36.3566 18.371 36.4873 17.0703 36.3839 16.2494H36.4229C38.1214 16.2494 39.5 14.7947 39.5 13.0007C39.5 11.2066 38.1213 9.75 36.421 9.75C34.7206 9.75 33.3419 11.2047 33.3419 13.0007C33.3419 13.8118 33.6246 14.5548 34.0907 15.1242C33.4219 15.559 32.5463 16.4795 31.2281 17.864C30.2141 18.9306 29.7071 19.463 29.1416 19.5468C28.8274 19.5916 28.507 19.5442 28.2193 19.4103C27.6967 19.1685 27.3476 18.5094 26.6515 17.1892L22.9777 10.2375C22.5487 9.42435 22.1879 8.7438 21.8623 8.19585C23.1941 7.47825 24.1047 6.0177 24.1047 4.33485C24.1047 1.9383 22.2679 0 20 0C17.7322 0 15.8953 1.94025 15.8953 4.3329C15.8953 6.0177 16.8059 7.47825 18.1378 8.1939C17.8121 8.7438 17.4533 9.42435 17.0224 10.2375L13.3505 17.1912C12.6524 18.5094 12.3034 19.1685 11.7808 19.4123C11.493 19.5461 11.1726 19.5936 10.8584 19.5487C10.2929 19.4649 9.7859 18.9306 8.7719 17.864C7.4537 16.4795 6.57815 15.559 5.9093 15.1242C6.3773 14.5548 6.6581 13.8119 6.6581 12.9987C6.6581 11.2067 5.2775 9.75 3.5771 9.75C1.8806 9.75 0.5 11.2047 0.5 13.0007C0.5 14.7947 1.87865 16.2494 3.57905 16.2494H3.6161C3.5108 17.0683 3.6434 18.371 3.84425 20.3424L4.2206 24.0357C4.42925 26.0852 4.6028 28.0352 4.8173 29.7921H35.1827C35.3972 28.0371 35.5707 26.0852 35.7794 24.0357ZM17.7673 39H22.2328C28.0535 39 30.9648 39 32.9071 37.167C33.7533 36.3636 34.2916 34.9206 34.6777 33.0408H5.32235C5.70845 34.9206 6.2447 36.3636 7.09295 37.1651C9.03515 39 11.9465 39 17.7673 39Z" fill="#D9D9D9"/>
</svg>
