<svg width="40" height="39" viewBox="0 0 40 39" fill="none" xmlns="http://www.w3.org/2000/svg">
<path fill-rule="evenodd" clip-rule="evenodd" d="M1.514 11.3548C0.5 13.2015 0.5 15.4342 0.5 19.8959V22.8638C0.5 30.4688 0.5 34.2732 2.7854 36.6366C5.0708 39 8.74655 39 16.1 39H23.9C31.2535 39 34.9311 39 37.2146 36.6366C39.4981 34.2732 39.5 30.4707 39.5 22.8638V19.8978C39.5 15.4343 39.5 13.2035 38.486 11.3548C37.4759 9.5043 35.6254 8.3577 31.9262 6.0606L28.0262 3.64065C24.1164 1.2129 22.1606 0 20 0C17.8394 0 15.8855 1.2129 11.9738 3.64065L8.0738 6.0606C4.37465 8.3577 2.52605 9.5043 1.514 11.3548ZM18.5375 31.2C18.5375 31.5879 18.6916 31.9599 18.9659 32.2341C19.2401 32.5084 19.6121 32.6625 20 32.6625C20.3879 32.6625 20.7599 32.5084 21.0341 32.2341C21.3084 31.9599 21.4625 31.5879 21.4625 31.2V25.35C21.4625 24.9621 21.3084 24.5901 21.0341 24.3159C20.7599 24.0416 20.3879 23.8875 20 23.8875C19.6121 23.8875 19.2401 24.0416 18.9659 24.3159C18.6916 24.5901 18.5375 24.9621 18.5375 25.35V31.2Z" fill="#D9D9D9"/>
</svg>
