<svg width="41" height="39" viewBox="0 0 41 39" fill="none" xmlns="http://www.w3.org/2000/svg">
<path d="M31.656 4.76527L27.656 2.7079C24.144 0.903286 22.388 0 20.5 0C18.612 0 16.856 0.901326 13.344 2.7079L12.702 3.03904L30.548 13.03L38.58 9.09164C37.288 7.65736 35.204 6.58556 31.656 4.76135M39.996 11.6859L32 15.6047V21.5535C32 21.9432 31.842 22.317 31.5607 22.5926C31.2794 22.8682 30.8978 23.023 30.5 23.023C30.1022 23.023 29.7206 22.8682 29.4393 22.5926C29.158 22.317 29 21.9432 29 21.5535V17.0743L22 20.5032V39C23.436 38.6493 25.07 37.8106 27.656 36.4802L31.656 34.4228C35.958 32.2107 38.11 31.1056 39.306 29.1168C40.5 27.1299 40.5 24.6552 40.5 19.7116V19.4824C40.5 15.7732 40.5 13.4533 39.996 11.6859ZM19 39V20.5032L1.004 11.6859C0.5 13.4533 0.5 15.7732 0.5 19.4784V19.7077C0.5 24.6552 0.5 27.1299 1.694 29.1168C2.89 31.1056 5.042 32.2126 9.344 34.4248L13.344 36.4802C15.93 37.8106 17.564 38.6493 19 39ZM2.42 9.0936L20.5 17.9501L27.322 14.6093L9.55 4.65947L9.344 4.76527C5.798 6.58752 3.712 7.65932 2.42 9.09556" fill="#D9D9D9"/>
</svg>
