<svg width="40" height="39" viewBox="0 0 40 39" fill="none" xmlns="http://www.w3.org/2000/svg">
<path fill-rule="evenodd" clip-rule="evenodd" d="M3.3548 36.1452C6.2135 39 10.8077 39 20 39C29.1923 39 33.7885 39 36.6432 36.1432C39.5 33.2904 39.5 28.6923 39.5 19.5C39.5 10.3077 39.5 5.71155 36.6432 2.8548C33.7904 0 29.1923 0 20 0C10.8077 0 6.21155 0 3.3548 2.8548C0.5 5.7135 0.5 10.3077 0.5 19.5C0.5 28.6923 0.5 33.2904 3.3548 36.1452ZM33.1625 27.3C33.1625 27.6879 33.0084 28.0599 32.7341 28.3341C32.4599 28.6084 32.0879 28.7625 31.7 28.7625H8.3C7.91212 28.7625 7.54013 28.6084 7.26586 28.3341C6.99158 28.0599 6.8375 27.6879 6.8375 27.3C6.8375 26.9121 6.99158 26.5401 7.26586 26.2659C7.54013 25.9916 7.91212 25.8375 8.3 25.8375H31.7C32.0879 25.8375 32.4599 25.9916 32.7341 26.2659C33.0084 26.5401 33.1625 26.9121 33.1625 27.3ZM31.7 20.9625C32.0879 20.9625 32.4599 20.8084 32.7341 20.5341C33.0084 20.2599 33.1625 19.8879 33.1625 19.5C33.1625 19.1121 33.0084 18.7401 32.7341 18.4659C32.4599 18.1916 32.0879 18.0375 31.7 18.0375H8.3C7.91212 18.0375 7.54013 18.1916 7.26586 18.4659C6.99158 18.7401 6.8375 19.1121 6.8375 19.5C6.8375 19.8879 6.99158 20.2599 7.26586 20.5341C7.54013 20.8084 7.91212 20.9625 8.3 20.9625H31.7ZM33.1625 11.7C33.1625 12.0879 33.0084 12.4599 32.7341 12.7341C32.4599 13.0084 32.0879 13.1625 31.7 13.1625H8.3C7.91212 13.1625 7.54013 13.0084 7.26586 12.7341C6.99158 12.4599 6.8375 12.0879 6.8375 11.7C6.8375 11.3121 6.99158 10.9401 7.26586 10.6659C7.54013 10.3916 7.91212 10.2375 8.3 10.2375H31.7C32.0879 10.2375 32.4599 10.3916 32.7341 10.6659C33.0084 10.9401 33.1625 11.3121 33.1625 11.7Z" fill="#D9D9D9"/>
</svg>
